<?xml version="1.0" standalone="no"?>
<!DOCTYPE svg PUBLIC "-//W3C//DTD SVG 20010904//EN"
 "http://www.w3.org/TR/2001/REC-SVG-20010904/DTD/svg10.dtd">
<svg version="1.0" xmlns="http://www.w3.org/2000/svg"
 width="1080.000000pt" height="1080.000000pt" viewBox="0 0 1080.000000 1080.000000"
 preserveAspectRatio="xMidYMid meet">
<metadata>
Created by potrace 1.11, written by Peter Selinger 2001-2013
</metadata>
<g transform="translate(0.000000,1080.000000) scale(0.100000,-0.100000)"
fill="#000000" stroke="none">
<path d="M3972 9409 c0 -1049 3 -1391 11 -1394 7 -1 39 -8 72 -15 33 -7 87
-19 120 -27 33 -9 67 -17 75 -18 8 -2 16 -4 18 -5 1 -2 5 -3 10 -5 4 -1 14 -4
22 -8 8 -3 33 -11 55 -17 22 -6 49 -15 60 -20 11 -4 38 -15 60 -23 22 -8 63
-25 90 -38 28 -12 52 -23 55 -23 36 -8 377 -208 400 -235 3 -3 24 -19 46 -34
23 -15 56 -41 74 -57 17 -15 46 -39 63 -52 35 -25 274 -262 322 -318 65 -75
165 -209 214 -285 28 -44 54 -85 58 -91 75 -102 187 -363 262 -609 16 -52 49
-198 55 -242 3 -22 7 -52 10 -65 6 -25 12 -82 23 -198 12 -137 6 -467 -11
-570 -3 -14 -7 -43 -10 -65 -7 -52 -24 -149 -32 -180 -1 -5 -9 -39 -17 -75
-23 -97 -74 -252 -114 -344 -19 -44 -36 -85 -37 -91 -4 -18 -61 -125 -124
-235 -35 -60 -149 -228 -181 -265 -14 -17 -42 -51 -61 -75 -68 -84 -200 -221
-296 -307 -132 -118 -190 -163 -324 -252 -94 -63 -337 -193 -435 -233 -38 -15
-160 -60 -170 -62 -5 -2 -35 -10 -66 -20 -31 -9 -66 -19 -78 -21 -11 -3 -31
-7 -43 -11 -13 -3 -34 -7 -48 -10 -14 -3 -29 -7 -35 -9 -5 -1 -29 -6 -52 -10
l-41 -7 0 -1394 0 -1394 52 5 c28 3 74 8 102 10 57 5 133 14 179 22 17 2 43 6
58 8 46 7 102 15 122 19 11 2 58 11 105 20 111 21 172 35 360 81 113 28 409
123 428 138 6 5 12 6 12 2 0 -4 6 -3 13 2 6 6 40 20 75 32 34 12 70 25 80 30
16 9 50 23 62 25 3 1 36 16 74 34 38 18 87 40 110 49 22 9 52 24 66 33 25 16
66 35 85 39 6 2 15 6 20 11 11 9 59 36 155 88 36 19 81 46 100 58 19 13 38 24
43 24 4 0 13 5 20 10 7 6 75 52 152 103 77 51 170 115 207 142 36 28 77 57 89
65 12 8 30 22 38 30 9 8 37 31 61 50 214 167 536 472 720 680 41 47 77 87 80
90 49 44 299 373 394 515 36 55 70 105 75 111 4 5 14 21 21 35 7 13 16 26 19
29 21 17 301 539 301 561 0 4 16 41 35 82 31 68 124 298 130 322 1 6 7 23 14
39 6 16 13 36 15 45 2 9 6 23 9 31 16 43 87 289 86 300 0 3 5 19 11 35 6 17
15 50 20 75 5 25 12 56 15 70 3 14 8 34 10 45 2 11 6 31 9 45 8 35 15 70 21
105 3 17 7 41 10 55 4 22 13 76 21 125 1 11 5 36 8 55 3 19 8 60 11 90 2 30 6
64 9 75 4 21 12 103 23 255 9 119 9 661 0 795 -6 90 -11 146 -22 240 -2 17 -6
57 -10 90 -3 33 -11 89 -16 125 -6 36 -12 74 -14 85 -2 11 -6 38 -10 60 -3 22
-8 51 -10 64 -3 19 -23 114 -30 141 -1 3 -5 25 -9 50 -5 25 -11 49 -14 54 -3
6 -7 19 -8 30 -1 12 -16 73 -34 136 -17 63 -34 122 -36 130 -12 51 -111 331
-140 397 -8 17 -14 34 -14 38 0 21 -178 404 -200 430 -7 8 -10 15 -6 15 3 0
-5 18 -19 40 -14 22 -25 42 -25 44 0 3 -30 56 -66 118 -94 161 -279 440 -362
543 -4 6 -23 30 -42 55 -171 221 -514 589 -720 771 -92 82 -314 265 -361 299
-19 13 -38 28 -44 32 -112 91 -366 257 -572 374 -92 52 -396 206 -413 210 -7
1 -49 19 -100 42 -116 53 -450 170 -608 213 -92 25 -189 49 -217 54 -11 3 -40
9 -65 15 -25 6 -58 13 -75 16 -56 10 -70 13 -125 24 -30 6 -71 13 -90 16 -19
2 -51 7 -70 10 -77 12 -175 25 -225 29 -22 2 -68 6 -101 9 l-62 6 0 -1391z"/>
<path d="M3348 7015 c-2 -2 -24 -6 -48 -9 -110 -12 -133 -16 -209 -36 -107
-27 -229 -73 -315 -118 -39 -20 -73 -39 -76 -42 -3 -3 -18 -12 -35 -20 -16 -8
-39 -23 -49 -32 -11 -10 -23 -18 -27 -18 -15 0 -185 -145 -254 -216 -101 -104
-118 -126 -195 -240 -83 -125 -181 -326 -171 -352 1 -1 -5 -15 -13 -31 -8 -15
-17 -41 -20 -57 -2 -16 -5 -30 -6 -31 -3 -3 -3 -3 -15 -58 -4 -22 -9 -49 -11
-60 -1 -11 -6 -42 -10 -70 -10 -66 -11 -364 -1 -440 4 -33 15 -94 24 -135 18
-90 19 -91 25 -110 3 -8 16 -44 28 -80 26 -78 92 -219 129 -275 14 -22 32 -52
40 -67 8 -16 18 -28 23 -28 4 0 8 -6 8 -14 0 -8 3 -16 8 -18 4 -1 27 -28 51
-58 41 -50 221 -232 269 -272 11 -9 23 -14 26 -11 3 4 6 2 6 -4 0 -13 144
-108 235 -155 76 -39 188 -86 220 -92 11 -2 40 -11 65 -19 49 -16 101 -28 190
-43 130 -21 411 -22 540 0 46 8 80 15 98 20 9 3 28 7 42 10 29 5 132 39 175
57 17 7 32 13 35 14 58 16 311 168 378 229 225 200 325 320 431 518 37 67 97
208 107 247 2 9 8 34 14 56 18 68 20 79 30 130 18 96 21 119 26 209 7 115 7
93 -1 221 -8 111 -12 160 -15 160 -1 0 -3 11 -5 25 -6 43 -45 193 -66 250 -54
150 -112 256 -236 430 -52 73 -195 217 -293 295 -41 33 -76 63 -78 68 -2 4 -9
7 -16 7 -7 0 -21 8 -32 18 -46 40 -284 158 -335 166 -8 1 -18 4 -24 8 -13 7
-167 44 -220 52 -22 4 -56 9 -75 12 -41 7 -367 14 -372 9z"/>
</g>
</svg>
