<?xml version="1.0" encoding="utf-8"?>
<!-- Generator: Adobe Illustrator 22.1.0, SVG Export Plug-In . SVG Version: 6.00 Build 0)  -->
<svg version="1.1" id="Layer_1" xmlns="http://www.w3.org/2000/svg" xmlns:xlink="http://www.w3.org/1999/xlink" x="0px" y="0px"
	 viewBox="0 0 176 270" style="enable-background:new 0 0 176 270;" xml:space="preserve">
<style type="text/css">
	.st0{fill:#FFFFFF;}
</style>
<g transform="matrix( 1, 0, 0, 1, 0,0) ">
	<g>
		<g id="Layer1_0_FILL">
			<path class="st0" d="M40.5,94.5c-4.3,0-8.4,0.6-12.3,1.8c-6.1,1.9-11.5,5.3-16.4,10.1C3.9,114.3,0,123.8,0,134.9
				c0,11.2,3.9,20.7,11.9,28.6c4.8,4.9,10.3,8.2,16.4,10.1c3.9,1.2,8,1.8,12.3,1.8c4.2,0,8.1-0.5,11.8-1.6
				c6.2-1.9,11.8-5.3,16.8-10.3C77,155.7,81,146.2,81,134.9c0-11.2-4-20.7-11.9-28.6c-5-5-10.6-8.4-16.8-10.2
				C48.6,95.1,44.7,94.5,40.5,94.5 M136.3,230.8c26.5-26.4,39.7-58.3,39.7-95.8c0-37.4-13.2-69.3-39.7-95.8
				C112.6,15.6,84.7,2.5,52.3,0v69.6c13.3,2.2,25,8.4,35.1,18.4c13,13,19.5,28.6,19.5,46.9s-6.5,34-19.5,46.9
				c-10.1,10.1-21.8,16.3-35.1,18.5V270C84.7,267.5,112.6,254.4,136.3,230.8z"/>
		</g>
	</g>
</g>
</svg>
